HIERARCHY
ROOT Hips
{
  OFFSET 59.2963 92.8754 6.087
  CHANNELS 6 Xposition Yposition Zposition Zrotation Xrotation Yrotation
  JOINT spine
  {
    OFFSET 0 7.4756 0.429885
    CHANNELS 3 Zrotation Xrotation Yrotation
    JOINT spine1
    {
      OFFSET 0 9.92301 0
      CHANNELS 3 Zrotation Xrotation Yrotation
      JOINT spine2
      {
        OFFSET 0 9.50804 0
        CHANNELS 3 Zrotation Xrotation Yrotation
        JOINT Neck
        {
          OFFSET 0 24.4111 1.16384
          CHANNELS 3 Zrotation Xrotation Yrotation
          JOINT Head
          {
            OFFSET 0 7.37523 0
            CHANNELS 3 Zrotation Xrotation Yrotation
            End Site
            {
              OFFSET 0 17.8522 -5.88741
            }
          }
        }
        JOINT RightShoulder
        {
          OFFSET -4.00356 10.2679 -0.557468
          CHANNELS 3 Zrotation Xrotation Yrotation
          JOINT RightArm
          {
            OFFSET 0 13.4673 0
            CHANNELS 3 Zrotation Xrotation Yrotation
            JOINT RightArmRoll
            {
              OFFSET 0 6.79858 0
              CHANNELS 3 Zrotation Xrotation Yrotation
              JOINT RightForeArm
              {
                OFFSET 0 19.8018 0
                CHANNELS 3 Zrotation Xrotation Yrotation
                JOINT RightForeArmRoll
                {
                  OFFSET 0 7.62906 0
                  CHANNELS 3 Zrotation Xrotation Yrotation
                  JOINT RightHand
                  {
                    OFFSET 0 15.3098 0
                    CHANNELS 3 Zrotation Xrotation Yrotation
                    End Site
                    {
                      OFFSET 0 0 0
                    }
                  }
                }
              }
            }
          }
        }
        JOINT LeftShoulder
        {
          OFFSET 4.00356 10.2679 -0.557468
          CHANNELS 3 Zrotation Xrotation Yrotation
          JOINT LeftArm
          {
            OFFSET 0 13.4673 0
            CHANNELS 3 Zrotation Xrotation Yrotation
            JOINT LeftArmRoll
            {
              OFFSET 0 6.79858 0
              CHANNELS 3 Zrotation Xrotation Yrotation
              JOINT LeftForeArm
              {
                OFFSET 0 19.8018 0
                CHANNELS 3 Zrotation Xrotation Yrotation
                JOINT LeftForeArmRoll
                {
                  OFFSET 0 7.62906 0
                  CHANNELS 3 Zrotation Xrotation Yrotation
                  JOINT LeftHand
                  {
                    OFFSET 0 15.3098 0
                    CHANNELS 3 Zrotation Xrotation Yrotation
                    End Site
                    {
                      OFFSET 0 0 0
                    }
                  }
                }
              }
            }
          }
        }
      }
    }
  }
  JOINT RightUpLeg
  {
    OFFSET -6.62609 -1.21505 -1.01927
    CHANNELS 3 Zrotation Xrotation Yrotation
    JOINT RightUpLegRoll
    {
      OFFSET 0 17.9517 0
      CHANNELS 3 Zrotation Xrotation Yrotation
      JOINT RightLeg
      {
        OFFSET 0 -22.2304 0
        CHANNELS 3 Zrotation Xrotation Yrotation
        JOINT RightLegRoll
        {
          OFFSET 0 22.3032 0
          CHANNELS 3 Zrotation Xrotation Yrotation
          JOINT RightFoot
          {
            OFFSET 0 18.5636 0
            CHANNELS 3 Zrotation Xrotation Yrotation
            JOINT RightToeBase
            {
              OFFSET 0 15.5183 0
              CHANNELS 3 Zrotation Xrotation Yrotation
              End Site
              {
                OFFSET 0.00657761 7.51539 -0.866262
              }
            }
          }
        }
      }
    }
  }
  JOINT LeftUpLeg
  {
    OFFSET 6.62609 -1.21505 -1.01927
    CHANNELS 3 Zrotation Xrotation Yrotation
    JOINT LeftUpLegRoll
    {
      OFFSET 0 17.9518 0
      CHANNELS 3 Zrotation Xrotation Yrotation
      JOINT LeftLeg
      {
        OFFSET 0 22.2303 0
        CHANNELS 3 Zrotation Xrotation Yrotation
        JOINT LeftLegRoll
        {
          OFFSET 0 22.5093 0
          CHANNELS 3 Zrotation Xrotation Yrotation
          JOINT LeftFoot
          {
            OFFSET 0 18.3575 0
            CHANNELS 3 Zrotation Xrotation Yrotation
            JOINT LeftToeBase
            {
              OFFSET 0 15.5183 0
              CHANNELS 3 Zrotation Xrotation Yrotation
              End Site
              {
                OFFSET -0.029478 7.51539 -0.866262
              }
            }
          }
        }
      }
    }
  }
}
MOTION
Frames: 5
Frame Time: 0.00208333
58.0399 92.9561 5.75002 1.39891 -9.58699 -4.45844 -0.110822 0.783915 0.282204 -0.218305 5.57972 0.579732 -0.225773 7.22476 0.58413 -20.4963 3.19294 -1.32991 20.744 -0.404445 -2.96157 56.3333 0.371059 0.536171 114.477 10.4208 22.5705 1.99734e-007 -7.15617e-008 -1.66231e-006 1.88832 0.0198582 -1.42977 -4.50263e-006 -6.1726e-008 -3.05412 8.03005 -4.95136 0.697644 -82.7626 -1.29475 3.15655 -89.5653 8.68636 -17.8456 -1.30995e-005 7.77285e-008 5.4432e-006 -9.72062 3.47677 0.997555 1.84816e-006 3.3911e-007 3 -8.02899 -4.95146 -0.69768 175.122 3.18607 2.47243 180 7.01493e-015 178.71 179.297 23.7183 179.158 -4.11128e-006 -4.01492e-006 0.396246 -18.6421 67.8442 19.4019 8.22261 28.7712 -1.34063 176.136 -3.56087 3.72812 4.54188e-006 -4.6773e-006 -1.10792 -4.52837 -9.45569 -0.136682 7.96022e-007 4.09513e-006 -0.105277 19.6585 69.4372 -20.795 -8.13649 25.2327 3.48773 
58.0487 92.9563 5.75256 1.41088 -9.57851 -4.4711 -0.112963 0.781565 0.283861 -0.223422 5.57595 0.583432 -0.230943 7.22099 0.58793 -20.5072 3.22399 -1.30859 20.7738 -0.428138 -2.94001 56.2992 0.372296 0.541495 114.47 10.4806 22.5395 1.99734e-007 -7.15617e-008 -1.66231e-006 1.89609 0.0198358 -1.42943 -4.50263e-006 -6.1726e-008 -3.05415 8.03005 -4.95136 0.697644 -82.7523 -1.3086 3.16063 -89.5393 8.74705 -17.856 -1.30995e-005 7.77285e-008 5.4432e-006 -9.70517 3.47258 0.996832 1.84816e-006 3.3911e-007 3 -8.02899 -4.95146 -0.69768 175.108 3.21215 2.4741 180 7.01493e-015 178.71 179.307 23.7348 179.155 -4.11128e-006 -4.01492e-006 0.396242 -18.644 67.8465 19.404 8.22211 28.7646 -1.33137 176.114 -3.5532 3.74553 4.54188e-006 -4.6773e-006 -1.10792 -4.52191 -9.44656 -0.135757 7.96022e-007 4.09513e-006 -0.105277 19.6592 69.438 -20.7953 -8.13649 25.2327 3.48773 
58.0534 92.9502 5.73683 1.42313 -9.56976 -4.48425 -0.115148 0.779158 0.285571 -0.228656 5.57215 0.587244 -0.23623 7.21719 0.591845 -20.5188 3.25512 -1.28684 20.8048 -0.452583 -2.91791 56.2636 0.373645 0.547091 114.465 10.5408 22.5096 1.99734e-007 -7.15617e-008 -1.66231e-006 1.90257 0.0198027 -1.42916 -4.50263e-006 -6.1726e-008 -3.0542 8.03005 -4.95136 0.697644 -82.7406 -1.32344 3.16495 -89.5145 8.80861 -17.8659 -1.30995e-005 7.77285e-008 5.4432e-006 -9.68971 3.4667 0.995893 1.84816e-006 3.3911e-007 3 -8.02899 -4.95146 -0.69768 175.093 3.23893 2.47575 180 7.01493e-015 178.71 179.316 23.7516 179.151 -4.11128e-006 -4.01492e-006 0.396235 -18.6459 67.8488 19.4061 8.22161 28.7578 -1.32193 176.091 -3.54527 3.76337 4.54188e-006 -4.6773e-006 -1.10792 -4.51528 -9.43718 -0.134819 7.96022e-007 4.09513e-006 -0.105277 19.6601 69.4389 -20.7957 -8.13649 25.2327 3.48773 
58.0607 92.9498 5.73768 1.43558 -9.56082 -4.49775 -0.117363 0.776711 0.287316 -0.233971 5.56832 0.591136 -0.2416 7.21336 0.59584 -20.5309 3.2863 -1.26481 20.8366 -0.477556 -2.89544 56.227 0.375072 0.552878 114.461 10.6012 22.4805 1.99734e-007 -7.15617e-008 -1.66231e-006 1.90817 0.0197619 -1.42896 -4.50263e-006 -6.1726e-008 -3.05426 8.03005 -4.95136 0.697644 -82.7281 -1.33897 3.16943 -89.4905 8.87077 -17.8755 -1.30995e-005 7.77285e-008 5.4432e-006 -9.67425 3.45963 0.994803 1.84816e-006 3.3911e-007 3 -8.02899 -4.95146 -0.69768 175.077 3.26621 2.47738 180 7.01493e-015 178.71 179.326 23.7686 179.147 -4.11128e-006 -4.01492e-006 0.396227 -18.6479 67.8512 19.4082 8.22109 28.7506 -1.31237 176.068 -3.53716 3.78151 4.54188e-006 -4.6773e-006 -1.10792 -4.50855 -9.42761 -0.133872 7.96022e-007 4.09513e-006 -0.105277 19.661 69.4398 -20.7961 -8.13649 25.2327 3.48773 
58.066 92.9491 5.72568 1.44816 -9.55177 -4.51145 -0.119595 0.77424 0.289083 -0.239332 5.56449 0.595072 -0.247016 7.20953 0.599882 -20.5433 3.31752 -1.24261 20.8689 -0.50283 -2.87275 56.1897 0.376543 0.558773 114.458 10.6619 22.4518 1.99734e-007 -7.15617e-008 -1.66231e-006 1.91325 0.0197168 -1.42878 -4.50263e-006 -6.1726e-008 -3.05432 8.03005 -4.95136 0.697644 -82.715 -1.35489 3.17402 -89.4669 8.93328 -17.8849 -1.30995e-005 7.77285e-008 5.4432e-006 -9.65878 3.45189 0.993627 1.84816e-006 3.3911e-007 3 -8.02899 -4.95146 -0.69768 175.062 3.29377 2.47901 180 7.01493e-015 178.71 179.336 23.7858 179.144 -4.11128e-006 -4.01492e-006 0.396218 -18.6499 67.8536 19.4104 8.22058 28.7434 -1.30274 176.045 -3.52895 3.79982 4.54188e-006 -4.6773e-006 -1.10792 -4.50174 -9.41795 -0.13292 7.96022e-007 4.09513e-006 -0.105277 19.662 69.4408 -20.7966 -8.13649 25.2327 3.48773 
